<mxfile host="app.diagrams.net" modified="2022-11-16T08:51:21.457Z" agent="5.0 (Windows NT 10.0; Win64; x64) AppleWebKit/537.36 (KHTML, like Gecko) Chrome/107.0.0.0 Safari/537.36" etag="gGlEY6QHFDdlW6G8vxFW" version="20.5.3" type="github">
  <diagram id="iafy8vLnpcnuuy3_OvVW" name="Страница 1">
    <mxGraphModel dx="813" dy="522" grid="1" gridSize="10" guides="1" tooltips="1" connect="1" arrows="1" fold="1" page="1" pageScale="1" pageWidth="827" pageHeight="1169" math="0" shadow="0">
      <root>
        <mxCell id="0" />
        <mxCell id="1" parent="0" />
        <mxCell id="J9ldG81cEZ1e4UeyS67y-7" value="DocumentForm/Index.cshtml" style="shape=umlLifeline;perimeter=lifelinePerimeter;whiteSpace=wrap;html=1;container=1;collapsible=0;recursiveResize=0;outlineConnect=0;" vertex="1" parent="1">
          <mxGeometry x="110" y="39" width="170" height="3429" as="geometry" />
        </mxCell>
      </root>
    </mxGraphModel>
  </diagram>
</mxfile>
